<?xml version="1.0" encoding="utf-8"?>
<svg xmlns="http://www.w3.org/2000/svg" height="24" width="24" viewBox="0 0 24 24">
  <g>
    <path id="path1" transform="rotate(0,12,12) translate(0.374517979119638,0) scale(0.749765290778448,0.749765290778448)  " fill="#746780" d="M5.032011,20C5.5840111,20 6.032011,20.448 6.032011,21 6.032011,21.552 5.5840111,22 5.032011,22 4.4800115,22 4.032011,21.552 4.032011,21 4.032011,20.448 4.4800115,20 5.032011,20z M17.499999,13.330973C14.649997,13.330972 12.331001,15.649999 12.331,18.49997 12.331001,21.349941 14.649997,23.669945 17.499999,23.669945 20.35,23.669945 22.668997,21.349941 22.668997,18.49997 22.668997,15.649999 20.35,13.330972 17.499999,13.330973z M5.032011,12C5.5840111,12 6.032011,12.448 6.032011,13 6.032011,13.552 5.5840111,14 5.032011,14 4.4800115,14 4.032011,13.552 4.032011,13 4.032011,12.448 4.4800115,12 5.032011,12z M17.499999,11.45097C21.386986,11.45097 24.548999,14.612952 24.548999,18.49997 24.548999,20.079071 24.027143,21.538513 23.146828,22.714905L23.138991,22.724872 30.717728,30.303059C31.108746,30.69405 31.108746,31.326035 30.717728,31.717026 30.522717,31.912022 30.266705,32.010019 30.010693,32.010019 29.754681,32.010019 29.498667,31.912022 29.303658,31.717026L21.724982,24.138898 21.71492,24.146809C20.538527,25.02712 19.079087,25.54897 17.499999,25.54897 13.613011,25.54897 10.450999,22.386988 10.450998,18.49997 10.450999,14.612952 13.613011,11.45097 17.499999,11.45097z M5.032011,3.9689894C5.5840111,3.9689894 6.032011,4.4169893 6.032011,4.9689894 6.032011,5.5209889 5.5840111,5.9689894 5.032011,5.9689894 4.4800115,5.9689894 4.032011,5.5209889 4.032011,4.9689894 4.032011,4.4169893 4.4800115,3.9689894 5.032011,3.9689894z M2,2L2,8.0000002 23,8.0000002 23,2z M1,0L24,0C24.552,0,25,0.44799995,25,1L25,13.246C24.446,12.457,23.769,11.763,23,11.184L23,10 2,10 2,16 8.6890099,16C8.5070099,16.641,8.3960099,17.31,8.3590097,18L2,18 2,24 10.184,24C10.191,24.01,10.201,24.018001,10.208,24.028L10.208,26 1,26C0.44799995,26,0,25.552,0,25L0,1C0,0.44799995,0.44799995,0,1,0z" />
  </g>
</svg>
