<?xml version="1.0" encoding="utf-8"?>
<svg xmlns="http://www.w3.org/2000/svg" height="24" width="24" viewBox="0 0 24 24">
  <g>
    <path id="path1" transform="rotate(0,12,12) translate(3.875,2) scale(0.625,0.625)  " fill="#746780" d="M21,7L21,25C21,26.103027,20.102997,27,19,27L7,27 7,30 24,30 24,7z M2,2L2,25 19.001007,25 19,2z M2,0L19,0C20.102997,0,21,0.89697266,21,2L21,5 24,5C25.103001,5,26,5.8969998,26,7L26,30C26,31.103001,25.103001,32,24,32L7,32C5.8969998,32,5,31.103001,5,30L5,27 2,27C0.89700317,27,0,26.103027,0,25L0,2C0,0.89697266,0.89700317,0,2,0z" />
  </g>
</svg>
