<?xml version="1.0" encoding="utf-8"?>
<svg xmlns="http://www.w3.org/2000/svg" height="24" width="24" viewBox="0 0 24 24">
  <g>
    <path id="path1" transform="rotate(0,12,12) translate(0,1.83495420091424) scale(0.752351061191329,0.752351061191329)  " fill="#FFFFFF" d="M15.820005,2.5450472L4.8299956,11.276844 4.8299956,25.022081 10.818996,25.022081 10.818996,18.522081C10.818996,16.04108 13.059997,14.02208 15.813997,14.02208 18.567999,14.02208 20.807999,16.04108 20.807999,18.522081L20.807999,25.022081 26.796999,25.022081 26.796999,11.109284z M15.808004,0L31.900002,12.55507 30.670006,14.131 28.796999,12.669682 28.796999,27.022081 18.807999,27.022081 18.807999,18.522081C18.807999,17.14308 17.464998,16.022081 15.813997,16.022081 14.161997,16.022081 12.818997,17.14308 12.818997,18.522081L12.818997,27.022081 2.8299954,27.022081 2.8299954,12.865887 1.2439995,14.125995 0,12.560075z" />
  </g>
</svg>
