<?xml version="1.0" encoding="utf-8"?>
<svg xmlns="http://www.w3.org/2000/svg" height="24" width="24" viewBox="0 0 24 24">
  <g>
    <path id="path1" transform="rotate(0,12,12) translate(4.2410080748343,2) scale(0.625019558386097,0.625019558386097)  " fill="#746780" d="M16.586995,8.2419963L18.586995,8.2419963 18.586995,26.863001 16.586995,26.863001z M11.413999,8.2419963L13.413999,8.2419963 13.413999,26.863001 11.413999,26.863001z M6.2409879,8.2419963L8.2409879,8.2419963 8.2409879,26.863001 6.2409879,26.863001z M3.0689992,5.1040006L3.0689992,29.998999 21.760007,29.998999 21.758999,5.1040006 16.516988,5.1040006 16.516988,5.1379995 14.516988,5.1379995 14.516988,5.1040006 10.30999,5.1040006 10.30999,5.1379995 8.3099891,5.1379995 8.3099891,5.1040006z M14.260989,1.9980001L10.551989,1.9999999C10.49399,2.0249999,10.30999,2.2599999,10.30999,2.656L10.30999,3.1029994 14.516988,3.1029994 14.516988,2.656C14.516988,2.2599999,14.333989,2.0249999,14.260989,1.9980001z M10.551989,0L14.275989,0C15.532988,0,16.516988,1.1669999,16.516988,2.656L16.516988,3.1029994 23.758999,3.1029994 23.758999,3.1040008 24.827998,3.1040008 24.827998,5.1040006 23.758999,5.1040006 23.758999,29.998999C23.758999,31.102995,22.861996,31.998999,21.758999,31.998999L3.0689992,31.998999C1.9660025,31.998999,1.0689995,31.102995,1.0689993,29.998999L1.0689993,5.1040006 0,5.1040006 0,3.1040008 1.0689993,3.1040008 1.0689993,3.1029994 8.3099891,3.1029994 8.3099891,2.656C8.3099891,1.1669999,9.2949892,0,10.551989,0z" />
  </g>
</svg>
