<?xml version="1.0" encoding="utf-8"?>
<svg xmlns="http://www.w3.org/2000/svg" height="24" width="24" viewBox="0 0 24 24">
  <g>
    <path id="path1" transform="rotate(0,12,12) translate(2.625,0) scale(0.75,0.75)  " fill="#FFFFFF" d="M5,23.001009L20,23.001009 20,24.001009 5,24.001009z M5,18.001009L20,18.001009 20,19.001009 5,19.001009z M5,13.001009L20,13.001009 20,14.001009 5,14.001009z M12,8.001009L20,8.001009 20,9.001009 12,9.001009z M7.223999,2.6119995L2.0799866,7.9790039 7.2120056,7.9650269C7.2349854,7.2590027,7.2279968,3.0299988,7.223999,2.6119995z M8.4660034,2L8.446991,9.4500122 5.9060059,9.4470215 1.493988,9.3330078 1.5,30 23,30 23,2z M7.0189819,0L25,0 25,32 0,32 0,7.8320007z" />
  </g>
</svg>
