<?xml version="1.0" encoding="utf-8"?>
<svg xmlns="http://www.w3.org/2000/svg" height="32" width="32" viewBox="0 0 32 32">
  <g>
    <path id="path1" transform="rotate(0,16,16) translate(3.79649925231934,0) scale(1,1)  " fill="#FFFFFF" d="M11.621987,21.059998C12.233987,21.059998 12.725991,21.557007 12.725991,22.16803 12.725991,22.781982 12.233987,23.277039 11.621987,23.277039 11.010994,23.277039 10.514992,22.781982 10.514992,22.16803 10.514992,21.557007 11.010994,21.059998 11.621987,21.059998z M11.649246,10.56665C11.653992,10.566528 11.660988,10.566528 11.669991,10.567017 11.842996,10.567993 12.771005,10.626038 12.818002,11.695984 12.818002,11.695984 12.953988,12.984009 12.470986,17.48999 12.470986,17.48999 12.443002,18.429993 12.040994,18.832031 12.040994,18.832031 11.557991,19.257019 11.022987,18.695984 11.022987,18.695984 10.884987,18.307983 10.699989,17.23999L10.405007,12.984009 10.405007,11.830017C10.405007,11.830017 10.436989,10.755005 11.642006,10.567017 11.642006,10.567017 11.644501,10.566772 11.649246,10.56665z M2.2849745,2.4150391L2.2849745,29.580017 22.121995,29.580017 22.121995,8.5 15.837994,8.5 15.837994,2.4150391z M0,0L15.837994,0 17.128003,0 22.681993,5.4400024 24.407001,7.125 24.407001,32 0,32z" />
  </g>
</svg>
