<?xml version="1.0" encoding="utf-8"?>
<svg xmlns="http://www.w3.org/2000/svg" height="16" width="16" viewBox="0 0 16 16">
  <g>
    <path id="path1" transform="rotate(0,8,8) translate(1,1.00023197370043) scale(0.437485710253166,0.437485710253166)  " fill="#FFFFFF" d="M1.0000002,4.9999852L10,4.9999852 10,6.9999852 2,6.9999852 2,29.999985 21,29.999985 21,18.999985 23,18.999985 23,30.999985C23,31.552964,22.552979,31.999985,22,31.999985L1.0000002,31.999985C0.44696045,31.999985,0,31.552964,0,30.999985L0,5.999985C0,5.4469762,0.44696045,4.9999852,1.0000002,4.9999852z M25.000652,3.5369424L25.000652,5.9999506C25.000652,6.5529526 24.553642,6.9999541 24.000631,6.9999542 17.863504,6.9999541 14.112429,9.1609616 12.853403,13.421976L12.679399,14.174979 14.312432,12.725974C17.441496,10.205965 20.679564,9.9999642 24.000631,9.9999642 24.553642,9.9999642 25.000652,10.446966 25.000652,10.999968L25.000652,13.462976 29.632746,8.4999595z M24.000965,9.5367432E-07C24.272472,0.00037956238,24.538454,0.11068058,24.731646,0.31693125L31.731789,7.816957C32.090797,8.2019582,32.090797,8.7979603,31.731789,9.1829615L24.731646,16.682987C24.45064,16.981988 24.015631,17.081988 23.633623,16.930988 23.251616,16.778987 23.00061,16.410986 23.00061,15.999984L23.00061,12.008971C20.335556,12.059971,17.907507,12.398973,15.603459,14.253978L11.663379,17.74799C11.476375,17.914991 11.23837,17.999992 11.000364,17.999992 10.824361,17.999992 10.647358,17.953991 10.489354,17.858991 10.115347,17.63699 9.9283428,17.197989 10.025345,16.773987L10.919363,12.912974C11.953384,9.4119625,14.884444,5.3279485,23.00061,5.0179473L23.00061,0.99993372C23.00061,0.58893251 23.251616,0.22093105 23.633623,0.068930626 23.753,0.022367954 23.877554,-0.00017118454 24.000965,9.5367432E-07z" />
  </g>
</svg>
