<?xml version="1.0" encoding="utf-8"?>
<svg xmlns="http://www.w3.org/2000/svg" height="24" width="24" viewBox="0 0 24 24">
  <g>
    <path id="path1" transform="rotate(0,12,12) translate(0,5.22824366261027) scale(0.750000044703486,0.750000044703486)  " fill="#746780" d="M15.998887,5.0159597C13.78589,5.0159597 11.985854,6.816005 11.985854,9.0289521 11.985854,11.24196 13.78589,13.041944 15.998887,13.041944 18.211884,13.041944 20.011798,11.24196 20.011798,9.0289521 20.011798,6.816005 18.211884,5.0159597 15.998887,5.0159597z M15.998887,3.0099825C19.317833,3.0099826 22.017887,5.7099891 22.017887,9.0289521 22.017887,12.347976 19.317833,15.047983 15.998887,15.047983 12.679941,15.047983 9.9798871,12.347976 9.9798872,9.0289521 9.9798871,5.7099891 12.679941,3.0099826 15.998887,3.0099825z M15.999,2.0060019C10.193,2.0060018 4.8829999,4.7460043 2.2969999,9.0290084 4.8829999,13.312012 10.193,16.052015 15.999,16.052015 21.805,16.052015 27.115001,13.312012 29.702001,9.0290084 27.115001,4.7460043 21.805,2.0060018 15.999,2.0060019z M15.999,0C22.743,0,28.922,3.3570031,31.740001,8.5510077L31.999999,9.0290084 31.740001,9.5070086C28.922,14.701013 22.743,18.058016 15.999,18.058016 9.2539999,18.058016 3.0759997,14.701013 0.25899982,9.5070086L0,9.0290084 0.25899982,8.5510077C3.0759997,3.3570031,9.2539999,0,15.999,0z" />
  </g>
</svg>
