<?xml version="1.0" encoding="utf-8"?>
<svg xmlns="http://www.w3.org/2000/svg" height="32" width="32" viewBox="0 0 32 32">
  <g>
    <path id="path1" transform="rotate(0,16,16) translate(2.19999408721924,0) scale(1,1)  " fill="#FFFFFF" d="M18.40001,17.600002L23,22 18.60001,26.399998 18.000011,25.599998 21.600002,22 17.800012,18.400002z M12.800007,17.600002L13.400005,18.400002 9.6000147,22 13.200006,25.799999 12.600008,26.399998 8.2000179,22z M16.264,15.853004L17.237,16.084003 14.330998,28.344999 13.357998,28.113998z M13,8L13.799999,8 13.799999,11.599998 16,11.599998 16,12.399999 13,12.399999 13,12.199999z M7.9999995,8L9.2000051,8 10.000008,11.000002 10.800012,8 12.200018,8 12.200018,12.200003 11.400014,12.200003 11.400014,8.8000002 10.600011,12.200003 9.6000066,12.200003 8.8000031,8.8000002 8.8000031,12.200003 7.9999995,12.200003z M3.9999995,8L7.4000058,8 7.4000058,8.8000002 6.2000036,8.8000002 6.2000036,12.399999 5.4000025,12.399999 5.4000025,12.199999 5.4000025,8.5999994 3.9999995,8.5999994z M0,8L0.80000448,8 0.80000448,9.6000013 2.4000134,9.6000013 2.4000134,8 3.2000179,8 3.2000179,12.200003 2.6000147,12.200003 2.6000147,10.400002 1.0000057,10.400002 1.0000057,12.200003 0,12.200003z M3.6000118,0L5.6000118,0 19.600012,0 21.600012,0 21.600012,2 23.600012,2 23.600012,4 21.600012,4 21.600012,6 23.600012,6 23.600012,4 25.600012,4 25.600012,6 27.600012,6 27.600012,32 25.600012,32 5.6000118,32 3.6000118,32 3.6000118,14 5.6000118,14 5.6000118,30 25.600012,30 25.600012,8 21.600012,8 19.600012,8 19.600012,6 19.600012,2 5.6000118,2 5.6000118,6 3.6000118,6z" />
  </g>
</svg>
