<?xml version="1.0" encoding="utf-8"?>
<svg xmlns="http://www.w3.org/2000/svg" height="32" width="32" viewBox="0 0 32 32">
  <g>
    <path id="path1" transform="rotate(0,16,16) translate(3.79650020599365,0) scale(1,1)  " fill="#FFFFFF" d="M11.362984,25.742996C12.001992,25.742996 12.392984,26.043999 12.392984,26.608002 12.392984,27.200996 11.971993,27.540001 11.280984,27.540001 11.092995,27.540001 10.943002,27.531998 10.829995,27.501999L10.829995,25.789001C10.927987,25.765999,11.10801,25.742996,11.362984,25.742996z M7.7859862,25.074997L7.7859862,28.327995C7.7859862,29.207001 7.4629877,29.446999 6.9379933,29.446999 6.7200062,29.446999 6.5170033,29.402 6.3670089,29.356995L6.2540023,30.100998C6.4489796,30.174995 6.7720082,30.221001 7.0269826,30.221001 8.0340021,30.221001 8.7099979,29.754997 8.7099979,28.358002L8.7099979,25.074997z M11.325997,25.038002C10.70301,25.038002,10.243995,25.083,9.9140089,25.142998L9.9140089,30.138 10.829995,30.138 10.829995,28.230995C10.950997,28.251999 11.10801,28.259995 11.280984,28.259995 11.933999,28.259995 12.51301,28.086998 12.880991,27.719002 13.167002,27.448997 13.316995,27.050995 13.316995,26.57 13.316995,26.097 13.121012,25.698997 12.820993,25.450996 12.497995,25.18 12.001992,25.038002 11.325997,25.038002z M16.857008,25.021996C15.181988,25.021996 14.039988,26.052002 14.039988,27.652 14.033,28.417999 14.296,29.086998 14.746013,29.514999 15.227001,29.973 15.872997,30.191002 16.729994,30.191002 17.405988,30.191002 18.035993,30.026001 18.359998,29.904999L18.359998,27.344002 16.572002,27.344002 16.572002,28.072998 17.466017,28.072998 17.466017,29.334999C17.345991,29.393997 17.098005,29.439995 16.767011,29.439995 15.716015,29.439995 15.009014,28.755997 15.009014,27.606995 15.009014,26.427002 15.767986,25.789001 16.849989,25.789001 17.383009,25.789001 17.720991,25.887001 17.999006,26.006996L18.202009,25.263C17.969007,25.150002,17.481001,25.021996,16.857008,25.021996z M5.6089823,11.327995L5.6089823,20.199997 10.785012,20.199997C11.229989,20.060997 12.176004,19.452995 12.282999,19.404999 12.999002,19.080002 14.539988,18.487999 14.714,18.462997 14.88499,18.437996 15.296001,18.317001 15.656994,18.211998 15.358013,16.742996 13.279001,15.700996 12.388986,14.504997 11.864999,14.878998 11.112984,16.094002 11.112984,16.094002 11.099984,15.555 11.57499,14.799995 11.844003,14.417 11.514992,14.350998 10.953988,14.310997 10.157997,14.518997 9.0019901,14.822998 10.713998,13.82 11.868996,13.768997 11.488992,13.219002 10.788003,12.541 10.788003,12.541 11.181985,12.553001 11.703011,13.012001 12.06901,13.389999 12.138986,12.904999 12.320993,12.178001 12.780985,12.002998 13.393992,11.768997 12.466013,12.082001 12.591013,13.490997 12.631998,13.474998 12.670999,13.459 12.720987,13.443001 13.91801,13.060997 16.672008,14.717995 14.934002,14.181999 13.509013,13.743996 12.940012,14.020996 12.779001,14.137001 14.095011,15.223999 16.641002,16.196999 17.591017,17.720001 18.168989,17.587997 18.772993,17.469002 19.11601,17.445L19.11601,11.327995z M4.3840063,10.103996L20.339004,10.103996 20.339004,21.423996 4.3840063,21.423996z M2.2839985,2.4179993L2.2839985,22.778 22.123979,22.778 22.123979,8.5029984 15.837993,8.5029984 15.837993,2.4179993z M0,0L15.837993,0 17.129987,0 24.406999,7.125 24.406999,32 0,32z" />
  </g>
</svg>
