<?xml version="1.0" encoding="utf-8"?>
<svg xmlns="http://www.w3.org/2000/svg" height="32" width="32" viewBox="0 0 32 32">
  <g>
    <ellipse cy="16" cx="16" ry="16" rx="16" fill="#FFFFFF" />
    <path id="path1" transform="rotate(0,16,16) translate(11.2468745708466,7) scale(0.5625,0.5625)  " fill="#000000" d="M7.5000028,28.299988C7.0999936,28.299988,6.8000054,28.700012,6.8000054,29.200012L6.8000054,29.700012C6.8000054,30.200012,7.0999936,30.600006,7.5000028,30.600006L9.5000037,30.600006C9.8999976,30.600006,10.200001,30.200012,10.200001,29.700012L10.200001,29.200012C10.200001,28.700012,9.8999976,28.299988,9.5000037,28.299988z M1.3999944,4L1.3999944,26.899994 15.4,26.899994 15.4,4z M5.5000018,1.2000122L5.5000018,1.2999878C5.3000049,1.2999878 5.1999988,1.5 5.1999988,1.7000122 5.0999927,1.8999939 5.3000049,2 5.5000018,2L11.800008,2C12.000005,2 12.099996,1.7999878 12.099996,1.6000061 12.099996,1.3999939 11.899999,1.2000122 11.800008,1.2000122z M1.8999949,0L15.000006,0C16.000007,0,16.900001,0.8999939,16.900001,2L16.900001,30C16.900001,31.100006,16.099997,32,15.000006,32L1.8999949,32C0.89999431,32,6.56255E-08,31.100006,0,30L0,2C6.56255E-08,0.8999939,0.8000034,0,1.8999949,0z" />
  </g>
</svg>
