<?xml version="1.0" encoding="utf-8"?>
<svg xmlns="http://www.w3.org/2000/svg" height="32" width="32" viewBox="0 0 32 32">
  <g>
    <path id="path1" transform="rotate(0,16,16) translate(3.29000091552734,0) scale(1,1)  " fill="#FFFFFF" d="M17.356009,21.523987L17.356009,25.504944 15.206993,25.504944 18.921987,29.792969 22.638995,25.504944 20.645009,25.504944 20.645009,21.523987z M18.860982,18.880981C22.482989,18.880981 25.419999,21.816956 25.419999,25.439941 25.419999,29.062988 22.482989,32 18.860982,32 15.237999,32 12.300988,29.062988 12.300988,25.439941 12.300988,21.816956 15.237999,18.880981 18.860982,18.880981z M2.9540085,16.838989L2.9540085,18.237976 12.773004,18.237976 12.773004,16.838989z M2.9540085,10.777954L2.9540085,12.175964 17.020987,12.175964 17.020987,10.777954z M14.610985,0.98999023L19.036,5.697998 15.543998,5.697998C15.028007,5.697998,14.610985,5.2809448,14.610985,4.7659912z M2.0209951,0L13.264001,0 13.264001,5.0249634C13.264001,6.1409912,14.168999,7.0459595,15.283988,7.0459595L19.999989,7.0459595 19.999989,17.16095C19.625997,17.108948 19.248006,17.073975 18.860982,17.073975 14.247002,17.073975 10.494989,20.826965 10.494989,25.439941 10.494989,26.518982 10.708002,27.547974 11.080988,28.496948L2.0209951,28.496948C0.90499832,28.496948,4.4252374E-08,27.59198,0,26.475952L0,2.0209961C4.4252374E-08,0.90496826,0.90499832,0,2.0209951,0z" />
  </g>
</svg>
