<?xml version="1.0" encoding="utf-8"?>
<svg xmlns="http://www.w3.org/2000/svg" height="24" width="24" viewBox="0 0 24 24">
  <g>
    <path id="path1" transform="rotate(0,12,12) translate(0,3.375) scale(0.75,0.75)  " fill="#746780" d="M16.875998,9.4840136C15.217996,9.4840136 13.880995,11.047009 13.880995,12.873003 13.880995,13.702001 14.295995,14.303998 15.124996,14.303998 16.215996,14.303998 17.213997,12.911003 17.420998,11.743007L17.816998,9.6150131C17.628998,9.5590134,17.307997,9.4840136,16.875998,9.4840136z M16.668997,5.3980265C19.945,5.3980265 22.148001,7.6950192 22.148001,10.84001 22.148001,13.664001 20.566,15.320995 18.796,15.320995 18.042997,15.320995 17.345997,14.811996 17.402998,13.664001L17.327997,13.664001C16.668997,14.774997 15.801996,15.320995 14.671995,15.320995 13.580995,15.320995 12.638993,14.434998 12.638993,12.948003 12.638993,10.61301 14.483995,8.4860163 17.100998,8.4860163 17.910997,8.4860163 18.626999,8.6550159 19.115999,8.8820152L18.475998,12.289004C18.193998,13.72 18.419998,14.379998 19.040998,14.397998 20.001999,14.416998 21.075001,13.136002 21.075001,10.952009 21.075001,8.2220173 19.435999,6.2630239 16.516996,6.2630239 13.448995,6.2630239 10.868992,8.6930161 10.868992,12.515004 10.868992,15.659994 12.920994,17.598988 15.707996,17.598988 16.780996,17.598988 17.778997,17.372988 18.550999,16.939989L18.851999,17.749987C17.816998,18.295986 16.761997,18.502985 15.500996,18.502985 12.412993,18.502985 9.7959909,16.243992 9.7959909,12.629004 9.7959909,8.7500162 12.487993,5.3980265 16.668997,5.3980265z M4.235589,2L9.565011,5.6419826C9.0960112,6.117981,8.6850109,6.6499796,8.3310108,7.2209778L2,2.8947339 2,21 30,21 30,2.8953018 23.631006,7.2469769C23.278006,6.6749787,22.869005,6.1429801,22.402006,5.6649814L27.765316,2z M1,0L31,0C31.553009,0,32,0.44702148,32,1L32,22C32,22.552002,31.553009,23,31,23L1,23C0.44799805,23,0,22.552002,0,22L0,1C0,0.44702148,0.44799805,0,1,0z" />
  </g>
</svg>
