<?xml version="1.0" encoding="utf-8"?>
<svg xmlns="http://www.w3.org/2000/svg" height="32" width="32" viewBox="0 0 32 32">
  <g>
    <ellipse cy="16" cx="16" ry="16" rx="16" fill="#FFFFFF" />
    <path id="path1" transform="rotate(0,16,16) translate(8.6875,7) scale(0.5625,0.5625)  " fill="#000000" d="M13,27C13.552,27 14,27.448 14,28 14,28.552 13.552,29 13,29 12.448,29 12,28.552 12,28 12,27.448 12.448,27 13,27z M5,5L5,25 21,25 21,5z M4.5,4L21.5,4C21.775999,4,22,4.224,22,4.5L22,25.5C22,25.775999,21.775999,26,21.5,26L4.5,26C4.224,26,4,25.775999,4,25.5L4,4.5C4,4.224,4.224,4,4.5,4z M2,2L2,30 24,30 24,2z M1,0L25,0C25.552002,0,26,0.44702148,26,1L26,31C26,31.552979,25.552002,32,25,32L1,32C0.44799805,32,0,31.552979,0,31L0,1C0,0.44702148,0.44799805,0,1,0z" />
  </g>
</svg>
