<?xml version="1.0" encoding="utf-8"?>
<svg xmlns="http://www.w3.org/2000/svg" height="24" width="24" viewBox="0 0 24 24">
  <g>
    <path id="path1" transform="rotate(0,12,12) translate(2.76206296682358,1) scale(0.6875,0.6875)  " fill="#FFFFFF" d="M9.8290001,6.0040008L9.667998,11.225001C9.667998,11.225001,9.4589983,14.677999,5.6549979,14.261L2.3930012,14.172999 2.3930012,29.006997C2.3930012,29.337998,2.6630014,29.604996,2.9929997,29.604996L19.753998,29.604996C20.083001,29.604996,20.351998,29.337998,20.351998,29.006997L20.351998,6.6020004C20.351998,6.2730018,20.083001,6.0040008,19.753998,6.0040008z M9.6719996,3.6100003L19.753998,3.6100003C21.406998,3.6100001,22.747994,4.95,22.747994,6.6020004L22.747994,29.006997C22.747994,30.660996,21.406998,32.000001,19.753998,32.000001L2.9929997,32.000001C1.3399999,32.000001,-4.1612282E-08,30.660996,0,29.006997L0,13.815001 1.1850009,12.564002 1.1860003,12.530001 7.3979975,6.0040008 7.3799998,6.0040008 5.7200004,7.7559997 7.4599978,5.9120018 7.4839998,5.9120018 7.5390001,5.8550026 7.5450007,5.8550026z M13.463998,0L24.510993,0 26.873999,0 26.873999,2.1060023 26.873999,24.489999 24.510993,24.489999 24.510993,2.1060023 13.463998,2.1060023z" />
  </g>
</svg>
